<svg width="979" height="979" viewBox="0 0 979 979" fill="none" xmlns="http://www.w3.org/2000/svg">
<g clip-path="url(#clip0_201_96)">
<path d="M65 0H50C22.3858 0 0 22.3858 0 50V929C0 956.614 22.3858 979 50 979H65C92.6142 979 115 956.614 115 929V50C115 22.3858 92.6142 0 65 0Z" fill="white"/>
<path d="M0 914L0 929C0 956.614 22.3858 979 50 979L929 979C956.614 979 979 956.614 979 929V914C979 886.386 956.614 864 929 864H50C22.3858 864 0 886.386 0 914Z" fill="white"/>
<path d="M230 370C243.807 370 255 358.807 255 345C255 331.193 243.807 320 230 320C216.193 320 205 331.193 205 345C205 358.807 216.193 370 230 370Z" fill="white"/>
<path d="M620 195C633.807 195 645 183.807 645 170C645 156.193 633.807 145 620 145C606.193 145 595 156.193 595 170C595 183.807 606.193 195 620 195Z" fill="white"/>
<path d="M490 589C503.807 589 515 577.807 515 564C515 550.193 503.807 539 490 539C476.193 539 465 550.193 465 564C465 577.807 476.193 589 490 589Z" fill="white"/>
<path d="M305 539C318.807 539 330 527.807 330 514C330 500.193 318.807 489 305 489C291.193 489 280 500.193 280 514C280 527.807 291.193 539 305 539Z" fill="white"/>
<path d="M205 687C218.807 687 230 675.807 230 662C230 648.193 218.807 637 205 637C191.193 637 180 648.193 180 662C180 675.807 191.193 687 205 687Z" fill="white"/>
<path d="M690 420C703.807 420 715 408.807 715 395C715 381.193 703.807 370 690 370C676.193 370 665 381.193 665 395C665 408.807 676.193 420 690 420Z" fill="white"/>
<path d="M640 470C653.807 470 665 458.807 665 445C665 431.193 653.807 420 640 420C626.193 420 615 431.193 615 445C615 458.807 626.193 470 640 470Z" fill="white"/>
<path d="M405 837C418.807 837 430 825.807 430 812C430 798.193 418.807 787 405 787C391.193 787 380 798.193 380 812C380 825.807 391.193 837 405 837Z" fill="white"/>
<path d="M715 787C728.807 787 740 775.807 740 762C740 748.193 728.807 737 715 737C701.193 737 690 748.193 690 762C690 775.807 701.193 787 715 787Z" fill="white"/>
<path d="M665 837C678.807 837 690 825.807 690 812C690 798.193 678.807 787 665 787C651.193 787 640 798.193 640 812C640 825.807 651.193 837 665 837Z" fill="white"/>
<path d="M640 737C653.807 737 665 725.807 665 712C665 698.193 653.807 687 640 687C626.193 687 615 698.193 615 712C615 725.807 626.193 737 640 737Z" fill="white"/>
<path d="M590 812C603.807 812 615 800.807 615 787C615 773.193 603.807 762 590 762C576.193 762 565 773.193 565 787C565 800.807 576.193 812 590 812Z" fill="white"/>
<path d="M540 737C553.807 737 565 725.807 565 712C565 698.193 553.807 687 540 687C526.193 687 515 698.193 515 712C515 725.807 526.193 737 540 737Z" fill="white"/>
<path d="M490 812C503.807 812 515 800.807 515 787C515 773.193 503.807 762 490 762C476.193 762 465 773.193 465 787C465 800.807 476.193 812 490 812Z" fill="white"/>
<path d="M380 787C393.807 787 405 775.807 405 762C405 748.193 393.807 737 380 737C366.193 737 355 748.193 355 762C355 775.807 366.193 787 380 787Z" fill="white"/>
<path d="M455 762C468.807 762 480 750.807 480 737C480 723.193 468.807 712 455 712C441.193 712 430 723.193 430 737C430 750.807 441.193 762 455 762Z" fill="white"/>
<path d="M455 395C468.807 395 480 383.807 480 370C480 356.193 468.807 345 455 345C441.193 345 430 356.193 430 370C430 383.807 441.193 395 455 395Z" fill="white"/>
<path d="M405 295C418.807 295 430 283.807 430 270C430 256.193 418.807 245 405 245C391.193 245 380 256.193 380 270C380 283.807 391.193 295 405 295Z" fill="white"/>
<path d="M330 395C343.807 395 355 383.807 355 370C355 356.193 343.807 345 330 345C316.193 345 305 356.193 305 370C305 383.807 316.193 395 330 395Z" fill="white"/>
<path d="M355 220C368.807 220 380 208.807 380 195C380 181.193 368.807 170 355 170C341.193 170 330 181.193 330 195C330 208.807 341.193 220 355 220Z" fill="white"/>
<path d="M230 270C243.807 270 255 258.807 255 245C255 231.193 243.807 220 230 220C216.193 220 205 231.193 205 245C205 258.807 216.193 270 230 270Z" fill="white"/>
<path d="M305 320C318.807 320 330 308.807 330 295C330 281.193 318.807 270 305 270C291.193 270 280 281.193 280 295C280 308.807 291.193 320 305 320Z" fill="white"/>
<path d="M255 420C268.807 420 280 408.807 280 395C280 381.193 268.807 370 255 370C241.193 370 230 381.193 230 395C230 408.807 241.193 420 255 420Z" fill="white"/>
</g>
<defs>
<clipPath id="clip0_201_96">
<rect width="979" height="979" fill="white"/>
</clipPath>
</defs>
</svg>
